<svg width="12" height="10" viewBox="0 0 12 10" fill="none" xmlns="http://www.w3.org/2000/svg">
<path d="M11.8552 7.15856L11.8016 7.06984C11.7002 6.90444 11.5651 6.76173 11.4048 6.65081C11.2444 6.5399 11.0624 6.46323 10.8704 6.42569L10.4293 6.33897V4.12976H11.5689C11.682 4.12959 11.7903 4.08517 11.8702 4.00625C11.9502 3.92732 11.9951 3.82033 11.9953 3.70871V0.421054C11.9951 0.309437 11.9502 0.20245 11.8702 0.123525C11.7903 0.0446002 11.682 0.000175085 11.5689 0H8.2438C8.13077 0.000175085 8.02243 0.0446002 7.94251 0.123525C7.86259 0.20245 7.81761 0.309437 7.81743 0.421054V1.66832C7.81743 1.7131 7.83544 1.75604 7.8675 1.7877C7.89956 1.81936 7.94304 1.83715 7.98838 1.83715C8.03372 1.83715 8.0772 1.81936 8.10926 1.7877C8.14132 1.75604 8.15933 1.7131 8.15933 1.66832V0.421054C8.15933 0.39893 8.16823 0.377713 8.18407 0.362069C8.19991 0.346426 8.2214 0.337643 8.2438 0.337643H11.573C11.5954 0.337643 11.6168 0.346426 11.6327 0.362069C11.6485 0.377713 11.6574 0.39893 11.6574 0.421054V3.70871C11.6574 3.73083 11.6485 3.75205 11.6327 3.76769C11.6168 3.78334 11.5954 3.79213 11.573 3.79213H8.2438C8.2214 3.79213 8.19991 3.78334 8.18407 3.76769C8.16823 3.75205 8.15933 3.73083 8.15933 3.70871V2.76531C8.15933 2.72054 8.14132 2.6776 8.10926 2.64594C8.0772 2.61428 8.03372 2.5965 7.98838 2.5965C7.94304 2.5965 7.89956 2.61428 7.8675 2.64594C7.83544 2.6776 7.81743 2.72054 7.81743 2.76531V3.70871C7.81761 3.82033 7.86259 3.92732 7.94251 4.00625C8.02243 4.08517 8.13077 4.12959 8.2438 4.12976H9.53899V6.16353L9.31173 6.11917C9.01612 6.04381 8.73768 5.91373 8.49117 5.73585L7.36022 4.9818C6.93207 4.69533 6.42667 4.54242 5.9095 4.54287H3.83129C3.49158 4.54194 3.15505 4.6074 2.84106 4.73545C2.52708 4.8635 2.24184 5.05161 2.00179 5.28898C1.69324 5.59319 1.30165 5.80207 0.874861 5.8901L0.629497 5.94108C0.451884 5.97855 0.292596 6.07489 0.178085 6.21411C0.0635753 6.35333 0.000735307 6.52704 0 6.70639V8.34161C4.45285e-05 8.43716 0.0281154 8.53065 0.0808196 8.61077C0.133524 8.6909 0.208605 8.75424 0.296984 8.79312L0.9781 9.09169C1.02639 9.33918 1.15783 9.56335 1.35115 9.72789C1.54448 9.89244 1.78838 9.98775 2.04338 9.9984C2.29838 10.009 2.54955 9.9344 2.75625 9.78656C2.96295 9.63871 3.11308 9.4263 3.18235 9.18372H8.85922C8.92627 9.41849 9.06914 9.6252 9.26608 9.77242C9.46303 9.91964 9.70327 9.99931 9.95028 9.99931C10.1973 9.99931 10.4375 9.91964 10.6345 9.77242C10.8314 9.6252 10.9743 9.41849 11.0413 9.18372H11.3658C11.5338 9.18337 11.6949 9.11725 11.8136 8.99986C11.9324 8.88246 11.9992 8.72337 11.9993 8.55744V7.68223C11.9993 7.49768 11.9483 7.31663 11.8518 7.15856H11.8552ZM9.88089 4.12976H10.0894V6.27144L9.88089 6.23039V4.12976ZM2.65408 9.43331C2.52263 9.56235 2.34954 9.6418 2.16491 9.65785C1.98028 9.6739 1.79579 9.62552 1.64354 9.52114C1.49129 9.41676 1.3809 9.26298 1.33159 9.08654C1.28228 8.9101 1.29715 8.72217 1.37363 8.55545V8.54816L1.38637 8.52301L1.3924 8.51109L1.40447 8.48925L1.41319 8.47468L1.42525 8.45548L1.43665 8.43893L1.44804 8.42238L1.46212 8.40384L1.47352 8.38994L1.49095 8.36941L1.501 8.35816L1.52782 8.33036L1.53318 8.32507L1.55732 8.30255L1.56335 8.29726L1.58749 8.27673C1.72864 8.16425 1.90455 8.10292 2.08592 8.10292C2.2673 8.10292 2.4432 8.16425 2.58436 8.27673L2.6105 8.29858L2.6152 8.30255L2.64469 8.33036L2.67486 8.36147L2.68693 8.37604L2.70168 8.39325L2.7171 8.41377L2.72581 8.42503L2.74391 8.45084V8.45548C2.84335 8.60595 2.88743 8.78559 2.86875 8.96432C2.85008 9.14305 2.7698 9.31002 2.64134 9.43728L2.65408 9.43331ZM10.5137 9.43331C10.375 9.56954 10.1901 9.65025 9.99462 9.65989C9.79918 9.66953 9.60704 9.60741 9.45521 9.4855C9.30338 9.3636 9.2026 9.19052 9.17227 8.99961C9.14194 8.80871 9.18422 8.61347 9.29095 8.45151V8.44687L9.30905 8.42105L9.31776 8.4098L9.33386 8.38928L9.3486 8.37207L9.36134 8.3575C9.37073 8.34691 9.38078 8.33632 9.39151 8.32639C9.46504 8.25371 9.55235 8.19604 9.64846 8.1567C9.74457 8.11736 9.84758 8.09712 9.95162 8.09712C10.0557 8.09712 10.1587 8.11736 10.2548 8.1567C10.3509 8.19604 10.4382 8.25371 10.5117 8.32639C10.5218 8.33632 10.5318 8.34691 10.5419 8.3575L10.5546 8.37207L10.5694 8.38928L10.5848 8.4098L10.5935 8.42105L10.6116 8.44687V8.45151C10.7111 8.60198 10.7551 8.78162 10.7365 8.96035C10.7178 9.13908 10.6375 9.30605 10.509 9.43331H10.5137ZM11.6608 8.55809C11.6608 8.63465 11.63 8.70807 11.5752 8.7622C11.5204 8.81633 11.446 8.84674 11.3685 8.84674H11.0869C11.0805 8.6021 10.9921 8.36646 10.8355 8.17677V8.17279L10.8054 8.13836L10.798 8.12976L10.7645 8.09467L10.7584 8.08871C10.6532 7.98365 10.528 7.90029 10.3898 7.84346C10.2517 7.78664 10.1036 7.75748 9.95397 7.7577C9.87925 7.75758 9.80471 7.76467 9.7314 7.77888C9.51175 7.82188 9.31008 7.92862 9.15218 8.08541L9.14682 8.09136L9.1133 8.12645L9.10592 8.13506C9.09587 8.14632 9.08514 8.15823 9.07576 8.17014V8.17346C8.91898 8.36309 8.83033 8.59871 8.82369 8.84343H3.22793C3.22145 8.59817 3.13253 8.36201 2.9752 8.17213L2.94302 8.13572L2.93698 8.1291L2.89743 8.08806C2.68464 7.87832 2.39628 7.76053 2.09564 7.76053C1.795 7.76053 1.50664 7.87832 1.29385 8.08806L1.25698 8.12645L1.24693 8.13836L1.22212 8.16683L1.2114 8.17942L1.18659 8.21053L1.17922 8.22046C1.15776 8.24959 1.13788 8.27938 1.11955 8.30983C1.11084 8.32506 1.10212 8.34029 1.09341 8.35551C1.03372 8.46763 0.993823 8.58898 0.97542 8.71434L0.442458 8.48064C0.414475 8.46834 0.390712 8.44828 0.374052 8.42289C0.357391 8.39751 0.348551 8.36789 0.348604 8.33764V6.70242C0.348956 6.60044 0.384674 6.50165 0.44981 6.42251C0.514947 6.34337 0.605572 6.28865 0.706593 6.26747L0.951957 6.21648C1.44339 6.11512 1.89435 5.87475 2.24983 5.52466C2.45818 5.31852 2.70577 5.15513 2.97834 5.0439C3.2509 4.93266 3.54306 4.87579 3.83799 4.87654H5.9162C6.36521 4.87607 6.80402 5.00868 7.17587 5.25721L8.30682 6.01126C8.5907 6.21469 8.91164 6.36215 9.25207 6.44555L10.8121 6.75207C10.957 6.78067 11.0943 6.83877 11.2153 6.92266C11.3363 7.00655 11.4382 7.1144 11.5146 7.23933L11.5689 7.32804C11.6334 7.43353 11.6674 7.55439 11.6675 7.67759L11.6608 8.55809Z" fill="#FD9B02"/>
</svg>
