<svg width="34" height="21" viewBox="0 0 34 21" fill="none" xmlns="http://www.w3.org/2000/svg">
<g clip-path="url(#clip0_20253_8670)">
<path d="M29.3919 15.1166H3.34399V3.86039C3.34399 3.05983 3.9779 2.41089 4.75992 2.41089H23.3639C23.879 2.41089 24.3535 2.69731 24.6028 3.15883L28.0128 9.46967C28.7744 9.46967 29.3919 10.1018 29.3919 10.8815V15.1166Z" fill="#B6BAC3"/>
<path d="M29.7984 17.9401H2.93773C2.78127 17.9401 2.65454 17.8104 2.65454 17.6502V15.4065C2.65454 15.2464 2.78127 15.1166 2.93773 15.1166H29.7984C29.9548 15.1166 30.0815 15.2464 30.0815 15.4065V17.6502C30.0815 17.8104 29.9548 17.9401 29.7984 17.9401Z" fill="#D8DBDF"/>
<path d="M6.13903 2.41089H4.75992C3.9779 2.41089 3.34399 3.05983 3.34399 3.86039V15.1166H4.7231V3.86039C4.7231 3.05983 5.35701 2.41089 6.13903 2.41089Z" fill="#F7F8F8"/>
<path d="M4.03341 17.6502V15.4065C4.03341 15.2464 4.16013 15.1166 4.31659 15.1166H2.93748C2.78102 15.1166 2.6543 15.2464 2.6543 15.4065V17.6502C2.6543 17.8104 2.78102 17.9401 2.93748 17.9401H4.31659C4.16027 17.9401 4.03341 17.8104 4.03341 17.6502Z" fill="#F7F8F8"/>
<path d="M29.3919 15.5515H3.34397C3.10935 15.5515 2.91919 15.3568 2.91919 15.1166V3.86024C2.91919 2.82124 3.74496 1.97589 4.75989 1.97589H23.364C24.0334 1.97589 24.6506 2.34841 24.9746 2.94822L28.2738 9.05396C29.1453 9.18383 29.8168 9.95381 29.8168 10.8812V15.1165C29.8166 15.3568 29.6265 15.5515 29.3919 15.5515ZM3.76874 14.6818H28.9672V10.8813C28.9672 10.3427 28.5392 9.90452 28.0129 9.90452C27.8584 9.90452 27.716 9.81857 27.6412 9.68014L24.2312 3.3693C24.0568 3.0462 23.7243 2.84574 23.364 2.84574H4.75989C4.21334 2.84574 3.76874 3.30103 3.76874 3.86039V14.6818Z" fill="#5B616E"/>
<path d="M29.7983 18.375H2.9377C2.54733 18.375 2.22974 18.0498 2.22974 17.6502V15.4065C2.22974 15.0069 2.54733 14.6818 2.9377 14.6818H29.7983C30.1887 14.6818 30.5063 15.0069 30.5063 15.4065V17.6502C30.5063 18.0498 30.1887 18.375 29.7983 18.375ZM3.07929 17.5052H29.6567V15.5515H3.07929V17.5052Z" fill="#5B616E"/>
<path d="M4.91383 12.2932H3.34399V15.1166H4.91383V12.2932Z" fill="#D8DBDF"/>
<path d="M29.392 12.2932H28.0129V15.1166H29.392V12.2932Z" fill="#D8DBDF"/>
<path d="M4.9138 15.5515H3.34397C3.10935 15.5515 2.91919 15.3568 2.91919 15.1166V12.2931C2.91919 12.0529 3.10935 11.8583 3.34397 11.8583H4.9138C5.14842 11.8583 5.33858 12.0529 5.33858 12.2931V15.1166C5.33858 15.3568 5.14842 15.5515 4.9138 15.5515ZM3.76874 14.6818H4.48902V12.728H3.76874V14.6818Z" fill="#5B616E"/>
<path d="M29.392 15.5515H28.0129C27.7783 15.5515 27.5881 15.3568 27.5881 15.1166V12.2931C27.5881 12.0529 27.7783 11.8583 28.0129 11.8583H29.392C29.6266 11.8583 29.8168 12.0529 29.8168 12.2931V15.1166C29.8168 15.3568 29.6266 15.5515 29.392 15.5515ZM28.4378 14.6818H28.9674V12.728H28.4378V14.6818Z" fill="#5B616E"/>
<path d="M11.4643 4.52844H4.91382V8.76374H11.4643V4.52844Z" fill="#EDEEF1"/>
<path d="M6.29293 4.52844H4.91382V8.76374H6.29293V4.52844Z" fill="#F7F8F8"/>
<path d="M18.3594 4.52844H12.8433V8.76374H18.3594V4.52844Z" fill="#EDEEF1"/>
<path d="M14.2224 4.52844H12.8433V8.76374H14.2224V4.52844Z" fill="#F7F8F8"/>
<path d="M23.4465 4.52844H19.7385V8.76374H21.3698L22.4967 10.8813H26.4205V9.86594L23.4465 4.52844Z" fill="#EDEEF1"/>
<path d="M21.1176 4.52844H19.7385V8.76374H21.1176V4.52844Z" fill="#F7F8F8"/>
<path d="M11.4643 9.19863H4.91379C4.67917 9.19863 4.48901 9.00396 4.48901 8.76378V4.52848C4.48901 4.2883 4.67917 4.09363 4.91379 4.09363H11.4643C11.6989 4.09363 11.8891 4.2883 11.8891 4.52848V8.76378C11.8891 9.00396 11.6988 9.19863 11.4643 9.19863ZM5.33857 8.32893H11.0395V4.96333H5.33857V8.32893Z" fill="#5B616E"/>
<path d="M18.3596 9.19863H12.8435C12.6089 9.19863 12.4187 9.00396 12.4187 8.76378V4.52848C12.4187 4.2883 12.6089 4.09363 12.8435 4.09363H18.3596C18.5942 4.09363 18.7844 4.2883 18.7844 4.52848V8.76378C18.7844 9.00396 18.5942 9.19863 18.3596 9.19863ZM13.2681 8.32893H17.9347V4.96333H13.2681V8.32893Z" fill="#5B616E"/>
<path d="M26.4206 11.3162H22.4968C22.3412 11.3162 22.1982 11.2291 22.1239 11.0895L21.1177 9.19863H19.7387C19.5041 9.19863 19.314 9.00396 19.314 8.76378V4.52848C19.314 4.2883 19.5041 4.09363 19.7387 4.09363H23.4468C23.5994 4.09363 23.7401 4.17741 23.8158 4.31308L26.7898 9.65058C26.8263 9.71625 26.8455 9.79046 26.8455 9.86598V10.8814C26.8454 11.1215 26.6552 11.3162 26.4206 11.3162ZM22.7491 10.4465H25.9958V9.98136L23.1998 4.96333H20.1634V8.32893H21.3699C21.5255 8.32893 21.6685 8.41604 21.7428 8.55563L22.7491 10.4465Z" fill="#5B616E"/>
<path d="M20.9686 10.4465H19.2695V11.3162H20.9686V10.4465Z" fill="#5B616E"/>
<path d="M23.1862 20.7636C25.0902 20.7636 26.6338 19.1835 26.6338 17.2342C26.6338 15.285 25.0902 13.7048 23.1862 13.7048C21.2821 13.7048 19.7385 15.285 19.7385 17.2342C19.7385 19.1835 21.2821 20.7636 23.1862 20.7636Z" fill="#D8DBDF"/>
<path d="M9.38733 20.7636C11.2914 20.7636 12.835 19.1835 12.835 17.2342C12.835 15.285 11.2914 13.7048 9.38733 13.7048C7.48325 13.7048 5.9397 15.285 5.9397 17.2342C5.9397 19.1835 7.48325 20.7636 9.38733 20.7636Z" fill="#D8DBDF"/>
<path d="M7.3273 17.2342C7.3273 15.5283 8.5096 14.105 10.0811 13.7763C9.85699 13.7295 9.62506 13.7048 9.38733 13.7048C7.48319 13.7048 5.9397 15.2849 5.9397 17.2342C5.9397 19.1835 7.48319 20.7636 9.38733 20.7636C9.62492 20.7636 9.85699 20.739 10.0811 20.6922C8.5096 20.3634 7.3273 18.9403 7.3273 17.2342Z" fill="#F7F8F8"/>
<path d="M21.1156 17.2342C21.1156 15.5283 22.2979 14.105 23.8695 13.7763C23.6453 13.7295 23.4134 13.7048 23.1757 13.7048C21.2715 13.7048 19.728 15.2849 19.728 17.2342C19.728 19.1835 21.2715 20.7636 23.1757 20.7636C23.4132 20.7636 23.6453 20.739 23.8695 20.6922C22.2979 20.3634 21.1156 18.9403 21.1156 17.2342Z" fill="#F7F8F8"/>
<path d="M23.1861 21.1986C21.0508 21.1986 19.3137 19.4202 19.3137 17.2342C19.3137 15.0484 21.0509 13.27 23.1861 13.27C25.3213 13.27 27.0585 15.0484 27.0585 17.2342C27.0585 19.4202 25.3215 21.1986 23.1861 21.1986ZM23.1861 14.1397C21.5193 14.1397 20.1633 15.5278 20.1633 17.2342C20.1633 18.9406 21.5193 20.3289 23.1861 20.3289C24.853 20.3289 26.209 18.9407 26.209 17.2342C26.209 15.528 24.853 14.1397 23.1861 14.1397Z" fill="#5B616E"/>
<path d="M9.3873 21.1986C7.25195 21.1986 5.51489 19.4202 5.51489 17.2342C5.51489 15.0484 7.25209 13.27 9.3873 13.27C11.5225 13.27 13.2597 15.0484 13.2597 17.2342C13.2596 19.4202 11.5225 21.1986 9.3873 21.1986ZM9.3873 14.1397C7.72048 14.1397 6.36445 15.5278 6.36445 17.2342C6.36445 18.9406 7.72048 20.3289 9.3873 20.3289C11.054 20.3289 12.4102 18.9407 12.4102 17.2342C12.41 15.528 11.054 14.1397 9.3873 14.1397Z" fill="#5B616E"/>
<path d="M9.38746 18.6546C10.1537 18.6546 10.7749 18.0187 10.7749 17.2342C10.7749 16.4498 10.1537 15.8138 9.38746 15.8138C8.62119 15.8138 8 16.4498 8 17.2342C8 18.0187 8.62119 18.6546 9.38746 18.6546Z" fill="#D8DBDF"/>
<path d="M23.1863 18.6546C23.9526 18.6546 24.5738 18.0187 24.5738 17.2342C24.5738 16.4498 23.9526 15.8138 23.1863 15.8138C22.42 15.8138 21.7988 16.4498 21.7988 17.2342C21.7988 18.0187 22.42 18.6546 23.1863 18.6546Z" fill="#D8DBDF"/>
<path d="M9.38733 19.0896C8.38797 19.0896 7.57495 18.2573 7.57495 17.2342C7.57495 16.2112 8.38797 15.379 9.38733 15.379C10.3867 15.379 11.1996 16.2112 11.1996 17.2342C11.1996 18.2573 10.3865 19.0896 9.38733 19.0896ZM9.38733 16.2487C8.85636 16.2487 8.4245 16.6908 8.4245 17.2342C8.4245 17.7777 8.85636 18.2199 9.38733 18.2199C9.91816 18.2199 10.35 17.7777 10.35 17.2342C10.35 16.6908 9.91816 16.2487 9.38733 16.2487Z" fill="#5B616E"/>
<path d="M23.1863 19.0896C22.1869 19.0896 21.374 18.2573 21.374 17.2342C21.374 16.2112 22.187 15.379 23.1863 15.379C24.1855 15.379 24.9985 16.2112 24.9985 17.2342C24.9985 18.2573 24.1856 19.0896 23.1863 19.0896ZM23.1863 16.2487C22.6554 16.2487 22.2236 16.6908 22.2236 17.2342C22.2236 17.7777 22.6554 18.2199 23.1863 18.2199C23.7171 18.2199 24.1489 17.7777 24.1489 17.2342C24.1489 16.6908 23.7171 16.2487 23.1863 16.2487Z" fill="#5B616E"/>
<path d="M18.3596 16.0936H14.2224V16.9633H18.3596V16.0936Z" fill="#5B616E"/>
<path d="M17.9008 10.4465H5.36987V11.3162H17.9008V10.4465Z" fill="#5B616E"/>
</g>
<defs>
<clipPath id="clip0_20253_8670">
<rect width="33" height="21" fill="white"/>
</clipPath>
</defs>
</svg>
